<?xml version="1.0" encoding="UTF-8"?>
<svg version="1.1" xmlns="http://www.w3.org/2000/svg" width="28" height="28">
<path d="M0 0 C4.40608743 2.16298837 7.1987497 4.39680479 9 9 C9.68426057 14.04325384 9.5739862 17.83076884 7.3125 22.4375 C4.28115306 25.79656012 2.25860352 27.69355631 -2.33203125 28.31640625 C-8.04951809 28.58213652 -11.60250453 27.96847152 -16 24 C-19.38570467 20.16286804 -19.51291172 16.36598538 -19.3515625 11.4375 C-18.67904883 6.77473854 -16.30117669 4.14809708 -12.875 1.125 C-8.55651358 -0.56484251 -4.5732948 -0.65960983 0 0 Z " fill="#272A35" transform="translate(19,0)"/>
<path d="M0 0 C1.32 0 2.64 0 4 0 C4 0.66 4 1.32 4 2 C4.63421875 2.19335938 5.2684375 2.38671875 5.921875 2.5859375 C8 4 8 4 8.828125 7.0390625 C8.96734375 8.22242188 9.1065625 9.40578125 9.25 10.625 C9.39953125 11.81351563 9.5490625 13.00203125 9.703125 14.2265625 C9.85007812 15.59941406 9.85007812 15.59941406 10 17 C11.32 17 12.64 17 14 17 C13.0717492 20.34170288 12.07068171 21.93461942 9.5 24.3125 C4.85615616 26.55149614 1.06938796 26.81604782 -4 26 C-8.40617281 23.83696971 -11.1644597 21.58885076 -13 17 C-13.22869139 13.98127368 -13.17766109 11.02023846 -13 8 C-12.34 7.67 -11.68 7.34 -11 7 C-10.96261719 7.59167969 -10.92523438 8.18335938 -10.88671875 8.79296875 C-10.36149677 15.40973715 -10.36149677 15.40973715 -7 21 C-3.18961667 22.73952283 -0.13250261 23.07704666 4 23 C3.9278125 22.38253906 3.855625 21.76507812 3.78125 21.12890625 C3.21450875 15.95739234 2.94226368 11.00977466 3.2578125 5.8125 C3.17273438 5.214375 3.08765625 4.61625 3 4 C2.01 3.34 1.02 2.68 0 2 C0 1.34 0 0.68 0 0 Z " fill="#302820" transform="translate(13,2)"/>
<path d="M0 0 C5.56818182 0.56818182 5.56818182 0.56818182 7 2 C7.08631874 3.34267413 7.10706473 4.68974322 7.09765625 6.03515625 C7.09443359 6.84404297 7.09121094 7.65292969 7.08789062 8.48632812 C7.07951172 9.33646484 7.07113281 10.18660156 7.0625 11.0625 C7.05798828 11.91650391 7.05347656 12.77050781 7.04882812 13.65039062 C7.03700373 15.76695663 7.01906769 17.88348685 7 20 C7.66 20.33 8.32 20.66 9 21 C2.6 22.23076923 2.6 22.23076923 -0.4375 21.0625 C-1.2109375 20.5365625 -1.2109375 20.5365625 -2 20 C-1.34 19.67 -0.68 19.34 0 19 C0.16677282 15.58343976 0.16677282 15.58343976 0 12 C-0.66 11.34 -1.32 10.68 -2 10 C-2.265625 8.125 -2.265625 8.125 -2.25 6 C-2.25515625 5.29875 -2.2603125 4.5975 -2.265625 3.875 C-2 2 -2 2 0 0 Z " fill="#A1816F" transform="translate(10,4)"/>
<path d="M0 0 C0.66 0 1.32 0 2 0 C2.12117187 0.62648438 2.24234375 1.25296875 2.3671875 1.8984375 C2.53476563 2.71570313 2.70234375 3.53296875 2.875 4.375 C3.03742187 5.18710938 3.19984375 5.99921875 3.3671875 6.8359375 C3.86658932 9.18673923 3.86658932 9.18673923 6 11 C6.125 14.625 6.125 14.625 6 18 C4.35 18.33 2.7 18.66 1 19 C-1.68692474 15.64134407 -3.29672573 13.30150233 -3.4375 8.9375 C-3.00393512 5.03541605 -2.45617268 3.02298176 0 0 Z " fill="#544337" transform="translate(5,5)"/>
<path d="M0 0 C0.33 0 0.66 0 1 0 C1.03738281 0.59167969 1.07476562 1.18335938 1.11328125 1.79296875 C1.63850323 8.40973715 1.63850323 8.40973715 5 14 C9.56739817 16.28369908 13.08273952 16.20612049 18 15 C19.64594139 13.60411246 19.64594139 13.60411246 21 12 C23.6875 10.8125 23.6875 10.8125 26 10 C25.0717492 13.34170288 24.07068171 14.93461942 21.5 17.3125 C16.85615616 19.55149614 13.06938796 19.81604782 8 19 C3.59382719 16.83696971 0.8355403 14.58885076 -1 10 C-1.27905523 6.97690167 -1.32453373 4.02066013 -1 1 C-0.67 0.67 -0.34 0.34 0 0 Z " fill="#242A37" transform="translate(1,9)"/>
<path d="M0 0 C1.32 0 2.64 0 4 0 C3.67 4.29 3.34 8.58 3 13 C-1 11 -1 11 -2 10 C-2.27314815 4.26388889 -2.27314815 4.26388889 -2 2 C-1.34 1.34 -0.68 0.68 0 0 Z " fill="#C4957C" transform="translate(10,4)"/>
<path d="M0 0 C3.09891358 0.92129863 4.72788114 1.67158069 6.8125 4.1875 C8.27520013 7.65178979 8.28128244 10.27300768 8 14 C7.67 14.66 7.34 15.32 7 16 C6.34 16 5.68 16 5 16 C3.80318922 12.72871719 2.96958169 9.77566498 2.5 6.3125 C2.22002006 2.87037035 2.22002006 2.87037035 0 0 Z " fill="#897D6E" transform="translate(18,3)"/>
<path d="M0 0 C1.32 0 2.64 0 4 0 C4 0.66 4 1.32 4 2 C4.66 2 5.32 2 6 2 C6.93402724 7.41735797 7.20808081 10.80451575 5 16 C4.34 16 3.68 16 3 16 C3.03480469 15.15695313 3.06960937 14.31390625 3.10546875 13.4453125 C3.13253906 12.34960938 3.15960937 11.25390625 3.1875 10.125 C3.22230469 9.03445313 3.25710937 7.94390625 3.29296875 6.8203125 C3.14794922 5.42425781 3.14794922 5.42425781 3 4 C2.01 3.34 1.02 2.68 0 2 C0 1.34 0 0.68 0 0 Z " fill="#211B14" transform="translate(13,2)"/>
<path d="M0 0 C0.79560764 2.91499943 1.25322499 5.74561419 1.5625 8.75 C1.64628906 9.54921875 1.73007813 10.3484375 1.81640625 11.171875 C1.87699219 11.77515625 1.93757812 12.3784375 2 13 C1.01 13 0.02 13 -1 13 C-2.5635348 9.87293041 -2.39958487 6.42017557 -2 3 C-1.34 2.01 -0.68 1.02 0 0 Z " fill="#C1B3A2" transform="translate(4,7)"/>
<path d="M0 0 C0.66 0.33 1.32 0.66 2 1 C2 6.61 2 12.22 2 18 C-0.29633824 14.55549263 -0.54016485 12.06187717 -1 8 C-0.34 8 0.32 8 1 8 C0.67 5.36 0.34 2.72 0 0 Z " fill="#6B4C40" transform="translate(15,5)"/>
<path d="M0 0 C1.32 0 2.64 0 4 0 C4.33 0.99 4.66 1.98 5 3 C5.66 3.66 6.32 4.32 7 5 C5.02 5.33 3.04 5.66 1 6 C0.67 4.02 0.34 2.04 0 0 Z " fill="#66776B" transform="translate(12,20)"/>
<path d="M0 0 C5 2 5 2 7 5 C6.67 6.32 6.34 7.64 6 9 C4.02 6.03 2.04 3.06 0 0 Z " fill="#B6AD9B" transform="translate(18,3)"/>
<path d="M0 0 C0.99 0 1.98 0 3 0 C3.33 2.31 3.66 4.62 4 7 C2.68 6.34 1.36 5.68 0 5 C0 3.35 0 1.7 0 0 Z " fill="#E7B49A" transform="translate(9,10)"/>
<path d="M0 0 C1.5625 1.0625 1.5625 1.0625 3 3 C2.6875 6.6875 2.6875 6.6875 2 10 C1.01 9.67 0.02 9.34 -1 9 C-0.7525 7.329375 -0.7525 7.329375 -0.5 5.625 C0.0455458 2.27967967 0.0455458 2.27967967 0 0 Z " fill="#57473C" transform="translate(6,14)"/>
</svg>
