<?xml version="1.0" encoding="UTF-8"?>
<svg version="1.1" xmlns="http://www.w3.org/2000/svg" width="29" height="29">
<path d="M0 0 C4.43118719 2.13646525 7.2290203 4.37577522 9 9 C9.66198068 14.34488104 9.67332051 18.60348339 7.3125 23.5 C3.24765156 27.89443074 0.53610427 29.18657624 -5.4375 29.4375 C-10.38551157 29.29099091 -13.27283083 28.44763149 -17 25 C-20.60057274 21.03936999 -20.50330882 16.78504341 -20.3515625 11.66015625 C-19.71571586 6.8489167 -17.41661708 4.28783371 -13.9375 1.125 C-9.31242228 -0.64630636 -4.88371757 -0.64542523 0 0 Z " fill="#7D011E" transform="translate(20,0)"/>
<path d="M0 0 C4.43118719 2.13646525 7.2290203 4.37577522 9 9 C9.66198068 14.34488104 9.67332051 18.60348339 7.3125 23.5 C3.24765156 27.89443074 0.53610427 29.18657624 -5.4375 29.4375 C-10.38551157 29.29099091 -13.27283083 28.44763149 -17 25 C-20.60057274 21.03936999 -20.50330882 16.78504341 -20.3515625 11.66015625 C-19.71571586 6.8489167 -17.41661708 4.28783371 -13.9375 1.125 C-9.31242228 -0.64630636 -4.88371757 -0.64542523 0 0 Z M-17 8 C-18.41086422 12.90845574 -18.57176395 16.83529566 -16.3125 21.4375 C-15.549375 22.283125 -14.78625 23.12875 -14 24 C-13.443125 24.61875 -12.88625 25.2375 -12.3125 25.875 C-8.55897435 27.70103951 -5.07066312 27.8674064 -1 27 C1.74308535 25.36315893 3.99323091 23.49071662 6 21 C6 20.34 6 19.68 6 19 C4.865625 18.608125 3.73125 18.21625 2.5625 17.8125 C-1 16 -1 16 -2.0625 13.625 C-1.99191862 10.66058212 -1.28891225 8.65364286 0 6 C0.33 7.65 0.66 9.3 1 11 C1.66 11 2.32 11 3 11 C3 12.65 3 14.3 3 16 C4.32 16.66 5.64 17.32 7 18 C7.45760607 12.2799241 6.63848132 9.44703273 3 5 C0.32193804 2.1306479 -0.92509763 2.00713356 -4.9375 1.625 C-10.09087949 1.82615422 -13.71460189 4.08279456 -17 8 Z " fill="#020101" transform="translate(20,0)"/>
<path d="M0 0 C3.30007044 0.03554834 5.11058588 0.5507432 7.6875 2.625 C11.31483553 6.42506579 12.26133656 7.84009686 12.4375 13.125 C12.39625 14.1975 12.355 15.27 12.3125 16.375 C10.9925 15.715 9.6725 15.055 8.3125 14.375 C8.3125 12.725 8.3125 11.075 8.3125 9.375 C7.6525 9.375 6.9925 9.375 6.3125 9.375 C5.9825 7.725 5.6525 6.075 5.3125 4.375 C3.9925 7.675 2.6725 10.975 1.3125 14.375 C-0.3375 14.045 -1.9875 13.715 -3.6875 13.375 C-5.01856125 9.38181626 -4.82397721 5.53755487 -4.6875 1.375 C-3.6875 0.375 -3.6875 0.375 0 0 Z " fill="#C5876F" transform="translate(14.6875,1.625)"/>
<path d="M0 0 C0.928125 0.37125 1.85625 0.7425 2.8125 1.125 C3.534375 1.41375 4.25625 1.7025 5 2 C3.48735523 5.85036851 1.55272291 7.88348422 -2 10 C-5.03169311 10.32555094 -7.96412257 10.23810803 -11 10 C-10.01 9.67 -9.02 9.34 -8 9 C-8 8.34 -8 7.68 -8 7 C-8.639375 6.7525 -9.27875 6.505 -9.9375 6.25 C-12 5 -12 5 -12.75 2.875 C-12.8325 2.25625 -12.915 1.6375 -13 1 C-12.01 1.33 -11.02 1.66 -10 2 C-9.67 1.01 -9.34 0.02 -9 -1 C-5.49304679 -2.62822827 -3.36308913 -1.55850472 0 0 Z " fill="#7B011D" transform="translate(21,17)"/>
<path d="M0 0 C4.42741644 1.35282169 6.36309221 3.23298888 9 7 C10.4783226 9.95664519 10.06032783 12.74229737 10 16 C8.68 15.34 7.36 14.68 6 14 C6 12.35 6 10.7 6 9 C5.34 9 4.68 9 4 9 C3.67 7.35 3.34 5.7 3 4 C2.34 4.99 1.68 5.98 1 7 C0.67 4.69 0.34 2.38 0 0 Z " fill="#50413C" transform="translate(17,2)"/>
<path d="M0 0 C0.66 0.33 1.32 0.66 2 1 C2 2.65 2 4.3 2 6 C2.66 6 3.32 6 4 6 C4.28875 6.94875 4.5775 7.8975 4.875 8.875 C5.76825109 12.05211578 5.76825109 12.05211578 8 14 C4.39703406 14.41176754 3.21597933 14.1535853 0.1875 12 C-0.534375 11.34 -1.25625 10.68 -2 10 C-1.46274105 6.62294375 -0.88935377 3.303314 0 0 Z " fill="#1F100D" transform="translate(19,5)"/>
<path d="M0 0 C2.0625 0.4375 2.0625 0.4375 4 1 C4.33 3.31 4.66 5.62 5 8 C0.25 11 0.25 11 -2 11 C-1.85957123 9.35369672 -1.71250671 7.70795821 -1.5625 6.0625 C-1.48128906 5.14597656 -1.40007812 4.22945312 -1.31640625 3.28515625 C-1 1 -1 1 0 0 Z " fill="#716F74" transform="translate(4,7)"/>
<path d="M0 0 C0.66 0 1.32 0 2 0 C2.33 3.63 2.66 7.26 3 11 C2.01 11 1.02 11 0 11 C0 9.02 0 7.04 0 5 C-0.99 5 -1.98 5 -3 5 C-1.125 1.125 -1.125 1.125 0 0 Z " fill="#4D3C37" transform="translate(8,3)"/>
<path d="M0 0 C0.5775 0.37125 1.155 0.7425 1.75 1.125 C1.09 2.445 0.43 3.765 -0.25 5.125 C-1.24 4.465 -2.23 3.805 -3.25 3.125 C-3.91 3.785 -4.57 4.445 -5.25 5.125 C-6.24 5.125 -7.23 5.125 -8.25 5.125 C-7.26858061 2.67145152 -6.52754408 1.32853232 -4.375 -0.25 C-2.25 -0.875 -2.25 -0.875 0 0 Z " fill="#8F0A2D" transform="translate(11.25,14.875)"/>
<path d="M0 0 C1.4540625 0.0309375 1.4540625 0.0309375 2.9375 0.0625 C2.9375 0.7225 2.9375 1.3825 2.9375 2.0625 C1.2875 2.3925 -0.3625 2.7225 -2.0625 3.0625 C-1.0725 3.3925 -0.0825 3.7225 0.9375 4.0625 C0.6075 5.3825 0.2775 6.7025 -0.0625 8.0625 C-1.3825 8.0625 -2.7025 8.0625 -4.0625 8.0625 C-4.10491723 5.72955225 -4.10342937 3.39547433 -4.0625 1.0625 C-3.0625 0.0625 -3.0625 0.0625 0 0 Z " fill="#D6AF9E" transform="translate(14.0625,1.9375)"/>
<path d="M0 0 C1.32 0.33 2.64 0.66 4 1 C4 3.31 4 5.62 4 8 C2.68 7.34 1.36 6.68 0 6 C0 4.02 0 2.04 0 0 Z " fill="#716969" transform="translate(23,10)"/>
<path d="M0 0 C0 2.31 0 4.62 0 7 C-0.99 6.67 -1.98 6.34 -3 6 C-3 5.01 -3 4.02 -3 3 C-4.32 2.67 -5.64 2.34 -7 2 C-1.125 0 -1.125 0 0 0 Z " fill="#BE907A" transform="translate(18,3)"/>
<path d="M0 0 C0.33 0 0.66 0 1 0 C1.433125 1.423125 1.433125 1.423125 1.875 2.875 C2.76825109 6.05211578 2.76825109 6.05211578 5 8 C3.35 8 1.7 8 0 8 C-0.66 6.02 -1.32 4.04 -2 2 C-1.34 2 -0.68 2 0 2 C0 1.34 0 0.68 0 0 Z " fill="#311A1A" transform="translate(22,11)"/>
<path d="M0 0 C1.32 0 2.64 0 4 0 C4.33 0.99 4.66 1.98 5 3 C3.02 3.66 1.04 4.32 -1 5 C-0.67 3.35 -0.34 1.7 0 0 Z " fill="#9C979B" transform="translate(4,12)"/>
</svg>
