<?xml version="1.0" encoding="UTF-8"?>
<svg version="1.1" xmlns="http://www.w3.org/2000/svg" width="28" height="28">
<path d="M0 0 C4.40608743 2.16298837 7.1987497 4.39680479 9 9 C9.68426057 14.04325384 9.5739862 17.83076884 7.3125 22.4375 C4.28115306 25.79656012 2.25860352 27.69355631 -2.33203125 28.31640625 C-8.04951809 28.58213652 -11.60250453 27.96847152 -16 24 C-19.38570467 20.16286804 -19.51291172 16.36598538 -19.3515625 11.4375 C-18.67904883 6.77473854 -16.30117669 4.14809708 -12.875 1.125 C-8.55651358 -0.56484251 -4.5732948 -0.65960983 0 0 Z " fill="#93868C" transform="translate(19,0)"/>
<path d="M0 0 C4.40608743 2.16298837 7.1987497 4.39680479 9 9 C9.68426057 14.04325384 9.5739862 17.83076884 7.3125 22.4375 C4.28115306 25.79656012 2.25860352 27.69355631 -2.33203125 28.31640625 C-8.04951809 28.58213652 -11.60250453 27.96847152 -16 24 C-19.38570467 20.16286804 -19.51291172 16.36598538 -19.3515625 11.4375 C-18.67904883 6.77473854 -16.30117669 4.14809708 -12.875 1.125 C-8.55651358 -0.56484251 -4.5732948 -0.65960983 0 0 Z M-16 8 C-17.5635348 11.12706959 -17.39958487 14.57982443 -17 18 C-16.34 18.99 -15.68 19.98 -15 21 C-14.21625 20.67 -13.4325 20.34 -12.625 20 C-9.65207817 18.86745835 -8.69830177 18.79239677 -5.6875 19.6875 C-2.88813703 20.29253539 -2.88813703 20.29253539 -0.4375 18.4375 C0.7690625 17.7259375 0.7690625 17.7259375 2 17 C4.3125 17.8125 4.3125 17.8125 6 19 C7.53214888 15.93570224 7.22938548 13.3834358 7 10 C5.58498308 6.54106975 4.37740787 5.2487461 1.25 3.1875 C-6.5314135 0.34429122 -10.65671847 2.17370997 -16 8 Z " fill="#020203" transform="translate(19,0)"/>
<path d="M0 0 C0 0.33 0 0.66 0 1 C-1.65 1.33 -3.3 1.66 -5 2 C-4.91253716 3.43861294 -4.80434652 4.87597508 -4.6875 6.3125 C-4.60048828 7.51326172 -4.60048828 7.51326172 -4.51171875 8.73828125 C-3.91793306 11.36272334 -3.04219706 12.30820672 -1 14 C-1.66 14 -2.32 14 -3 14 C-3 14.99 -3 15.98 -3 17 C-2.34 17.33 -1.68 17.66 -1 18 C-1.78375 17.835 -2.5675 17.67 -3.375 17.5 C-7.32915804 16.74682704 -9.31357607 17.4478215 -13 19 C-15.10081332 15.84878002 -15.53041608 13.89550991 -15.4609375 10.13671875 C-14.61684071 6.22382939 -11.9177214 3.60780798 -9 1 C-6.04335481 -0.4783226 -3.25770263 -0.06032783 0 0 Z " fill="#858B9D" transform="translate(17,2)"/>
<path d="M0 0 C1.32 0.66 2.64 1.32 4 2 C3.68151851 4.97249386 2.96374181 6.03839103 0.875 8.25 C-2.74146507 10.45132657 -4.82443976 10.44738145 -9 10 C-11.9375 9 -11.9375 9 -14 8 C-14 7.34 -14 6.68 -14 6 C-14.66 5.67 -15.32 5.34 -16 5 C-13.69 3.68 -11.38 2.36 -9 1 C-9 1.66 -9 2.32 -9 3 C-5.85375007 3.26218749 -4.38162983 3.24754367 -1.6875 1.5 C-1.130625 1.005 -0.57375 0.51 0 0 Z " fill="#192A45" transform="translate(20,16)"/>
<path d="M0 0 C0.33 0.66 0.66 1.32 1 2 C3.52733235 2.65555119 3.52733235 2.65555119 6 3 C4.515 5.475 4.515 5.475 3 8 C0.69 7.67 -1.62 7.34 -4 7 C-4 6.34 -4 5.68 -4 5 C-4.66 4.67 -5.32 4.34 -6 4 C-4.02 2.68 -2.04 1.36 0 0 Z " fill="#0F1C35" transform="translate(10,17)"/>
<path d="M0 0 C2.31 0 4.62 0 7 0 C7 0.33 7 0.66 7 1 C5.35 1.33 3.7 1.66 2 2 C2.08746284 3.43861294 2.19565348 4.87597508 2.3125 6.3125 C2.37050781 7.11300781 2.42851562 7.91351563 2.48828125 8.73828125 C3.08206694 11.36272334 3.95780294 12.30820672 6 14 C5.34 14 4.68 14 4 14 C4 14.99 4 15.98 4 17 C4.66 17.33 5.32 17.66 6 18 C4.35 17.67 2.7 17.34 1 17 C0.1679418 11.27959989 -0.12036664 5.77759884 0 0 Z " fill="#7A5750" transform="translate(10,2)"/>
<path d="M0 0 C1.98 0 3.96 0 6 0 C5.67 1.65 5.34 3.3 5 5 C3.68 5 2.36 5 1 5 C0.67 3.35 0.34 1.7 0 0 Z " fill="#E1B2A5" transform="translate(12,9)"/>
<path d="M0 0 C1.98 0 3.96 0 6 0 C6 1.32 6 2.64 6 4 C3.69 4 1.38 4 -1 4 C-0.67 2.68 -0.34 1.36 0 0 Z " fill="#F0CBC0" transform="translate(12,3)"/>
<path d="M0 0 C0.66 0 1.32 0 2 0 C1.6875 1.875 1.6875 1.875 1 4 C0.01 4.66 -0.98 5.32 -2 6 C-2 2 -2 2 0 0 Z " fill="#0B0B0D" transform="translate(5,2)"/>
</svg>
