<svg width="75" height="72" viewBox="0 0 75 72" fill="none" xmlns="http://www.w3.org/2000/svg">
<path d="M10.8398 29.25H9.375C8.7534 29.25 8.15726 29.4871 7.71772 29.909C7.27818 30.331 7.03125 30.9033 7.03125 31.5V33.75C7.03125 34.3467 7.27818 34.919 7.71772 35.341C8.15726 35.7629 8.7534 36 9.375 36H11.71C11.6895 42.0684 10.9055 48.1122 9.375 54H28.125C26.5945 48.1122 25.8105 42.0684 25.79 36H28.125C28.7466 36 29.3427 35.7629 29.7823 35.341C30.2218 34.919 30.4688 34.3467 30.4688 33.75V31.5C30.4688 30.9033 30.2218 30.331 29.7823 29.909C29.3427 29.4871 28.7466 29.25 28.125 29.25H26.6602L31.6245 16.5403C31.7576 16.1997 31.8027 15.8331 31.7559 15.4721C31.7091 15.1111 31.5718 14.7663 31.3558 14.4674C31.1397 14.1685 30.8514 13.9243 30.5155 13.7558C30.1797 13.5873 29.8062 13.4996 29.4272 13.5H21.0938V9H24.6094C24.9202 9 25.2182 8.88147 25.438 8.6705C25.6578 8.45952 25.7812 8.17337 25.7812 7.875V5.625C25.7812 5.32663 25.6578 5.04048 25.438 4.8295C25.2182 4.61853 24.9202 4.5 24.6094 4.5H21.0938V1.125C21.0938 0.826631 20.9703 0.540483 20.7505 0.329505C20.5307 0.118526 20.2327 0 19.9219 0L17.5781 0C17.2673 0 16.9693 0.118526 16.7495 0.329505C16.5297 0.540483 16.4062 0.826631 16.4062 1.125V4.5H12.8906C12.5798 4.5 12.2818 4.61853 12.062 4.8295C11.8422 5.04048 11.7188 5.32663 11.7188 5.625V7.875C11.7188 8.17337 11.8422 8.45952 12.062 8.6705C12.2818 8.88147 12.5798 9 12.8906 9H16.4062V13.5H8.06982C7.69085 13.4996 7.31742 13.5873 6.98153 13.7558C6.64565 13.9243 6.35733 14.1685 6.1413 14.4674C5.92527 14.7663 5.78797 15.1111 5.74116 15.4721C5.69436 15.8331 5.73944 16.1997 5.87256 16.5403L10.8398 29.25ZM36.2051 64.6284L32.8125 63V60.75C32.8125 60.1533 32.5656 59.581 32.126 59.159C31.6865 58.7371 31.0904 58.5 30.4688 58.5H7.03125C6.40965 58.5 5.81351 58.7371 5.37397 59.159C4.93443 59.581 4.6875 60.1533 4.6875 60.75V63L1.29639 64.6284C0.906947 64.8152 0.579382 65.1024 0.350407 65.4578C0.121432 65.8132 9.639e-05 66.2229 0 66.6408L0 69.75C0 70.3467 0.24693 70.919 0.686468 71.341C1.12601 71.7629 1.72215 72 2.34375 72H35.1562C35.7779 72 36.374 71.7629 36.8135 71.341C37.2531 70.919 37.5 70.3467 37.5 69.75V66.6408C37.5 66.223 37.3789 65.8135 37.1502 65.4581C36.9215 65.1027 36.5942 64.8154 36.2051 64.6284ZM49.7944 42.4406L49.3125 54H67.875L67.3931 42.4392L70.9966 39.5156C71.5172 39.0927 71.9355 38.5658 72.2221 37.9717C72.5088 37.3776 72.6569 36.7307 72.6562 36.0759V27.8438C72.6562 27.62 72.5637 27.4054 72.3988 27.2471C72.234 27.0889 72.0104 27 71.7773 27H67.9131C67.68 27 67.4564 27.0889 67.2916 27.2471C67.1268 27.4054 67.0342 27.62 67.0342 27.8438V31.5H63.4146V27.8438C63.4146 27.62 63.322 27.4054 63.1571 27.2471C62.9923 27.0889 62.7687 27 62.5356 27H54.6533C54.4202 27 54.1967 27.0889 54.0318 27.2471C53.867 27.4054 53.7744 27.62 53.7744 27.8438V31.5H50.1548V27.8438C50.1548 27.62 50.0622 27.4054 49.8974 27.2471C49.7325 27.0889 49.509 27 49.2759 27H45.4102C45.1771 27 44.9535 27.0889 44.7887 27.2471C44.6238 27.4054 44.5312 27.62 44.5312 27.8438V36.0844C44.5324 36.738 44.6819 37.3836 44.9692 37.9761C45.2566 38.5687 45.675 39.094 46.1953 39.5156L49.7944 42.4406ZM56.25 42.75C56.25 42.1533 56.4969 41.581 56.9365 41.159C57.376 40.7371 57.9721 40.5 58.5938 40.5C59.2154 40.5 59.8115 40.7371 60.251 41.159C60.6906 41.581 60.9375 42.1533 60.9375 42.75V47.25H56.25V42.75ZM73.7051 64.6284L70.3125 63V60.75C70.3125 60.1533 70.0656 59.581 69.626 59.159C69.1865 58.7371 68.5904 58.5 67.9688 58.5H49.2188C48.5971 58.5 48.001 58.7371 47.5615 59.159C47.1219 59.581 46.875 60.1533 46.875 60.75V63L43.4839 64.6284C43.0944 64.8152 42.7669 65.1024 42.5379 65.4578C42.3089 65.8132 42.1876 66.2229 42.1875 66.6408V69.75C42.1875 70.3467 42.4344 70.919 42.874 71.341C43.3135 71.7629 43.9096 72 44.5312 72H72.6562C73.2779 72 73.874 71.7629 74.3135 71.341C74.7531 70.919 75 70.3467 75 69.75V66.6408C75 66.223 74.8789 65.8135 74.6502 65.4581C74.4215 65.1027 74.0942 64.8154 73.7051 64.6284Z" fill="#222736"/>
</svg>
