<svg width="67" height="67" viewBox="0 0 67 67" fill="none" xmlns="http://www.w3.org/2000/svg">
<path d="M61.6344 23.302C61.2494 22.9068 60.7851 22.5976 60.2721 22.3947V12.9729C60.2721 12.442 60.0612 11.9329 59.6858 11.5575C59.3105 11.1821 58.8013 10.9712 58.2705 10.9712C57.7418 10.9785 57.2369 11.1917 56.8631 11.5655C56.4893 11.9393 56.2761 12.4443 56.2688 12.9729V21.9146H55.6826C54.7444 18.7551 52.8109 15.9832 50.1701 14.0113C47.5292 12.0395 44.3221 10.9732 41.0263 10.9712H26.317C23.0212 10.9732 19.8142 12.0395 17.1733 14.0113C14.5325 15.9832 12.599 18.7551 11.6608 21.9146H10.8875V12.9729C10.8875 12.442 10.6766 11.9329 10.3012 11.5575C9.92586 11.1821 9.41674 10.9712 8.88588 10.9712C8.35501 10.9712 7.84589 11.1821 7.47052 11.5575C7.09514 11.9329 6.88425 12.442 6.88425 12.9729V22.4227C6.39606 22.6302 5.95175 22.9286 5.57496 23.302C4.68905 24.1979 4.19074 25.4061 4.1875 26.666V40.334C4.18677 40.9582 4.30917 41.5764 4.54769 42.1532C4.78621 42.73 5.13617 43.254 5.57752 43.6954C6.01888 44.1368 6.54296 44.4867 7.11976 44.7252C7.69656 44.9638 8.31475 45.0861 8.93892 45.0854H11.6078C12.546 48.2449 14.4794 51.0168 17.1203 52.9887C19.7612 54.9605 22.9682 56.0268 26.264 56.0287H40.7332C44.029 56.0268 47.2361 54.9605 49.8769 52.9887C52.5178 51.0168 54.4512 48.2449 55.3895 45.0854H58.0555C58.6797 45.0861 59.2979 44.9638 59.8747 44.7252C60.4515 44.4867 60.9755 44.1368 61.4169 43.6954C61.8583 43.254 62.2082 42.73 62.4467 42.1532C62.6853 41.5764 62.8077 40.9582 62.8069 40.334V26.666C62.8628 25.4377 62.4412 24.2317 61.6344 23.302ZM11.1555 41.0822H9.045C8.84585 41.0838 8.65415 41.0065 8.5118 40.8672C8.38049 40.72 8.30535 40.5312 8.29963 40.334V26.666C8.29356 26.4753 8.3628 26.2899 8.49236 26.1499C8.62192 26.0099 8.8014 25.9265 8.99196 25.9178H11.1555C11.1434 26.0338 11.1434 26.1508 11.1555 26.2668V40.7332C11.1434 40.8492 11.1434 40.9662 11.1555 41.0822ZM23.168 32.0595V24.8514C23.1327 24.5341 23.1647 24.2129 23.2619 23.9088C23.3591 23.6048 23.5194 23.3246 23.7323 23.0867C23.9452 22.8488 24.2059 22.6584 24.4973 22.5281C24.7888 22.3978 25.1045 22.3305 25.4237 22.3305C25.743 22.3305 26.0586 22.3978 26.3501 22.5281C26.6415 22.6584 26.9022 22.8488 27.1151 23.0867C27.328 23.3246 27.4883 23.6048 27.5855 23.9088C27.6827 24.2129 27.7147 24.5341 27.6794 24.8514V32.0595C27.7147 32.3768 27.6827 32.698 27.5855 33.0021C27.4883 33.3062 27.328 33.5863 27.1151 33.8242C26.9022 34.0621 26.6415 34.2525 26.3501 34.3828C26.0586 34.5131 25.743 34.5805 25.4237 34.5805C25.1045 34.5805 24.7888 34.5131 24.4973 34.3828C24.2059 34.2525 23.9452 34.0621 23.7323 33.8242C23.5194 33.5863 23.3591 33.3062 23.2619 33.0021C23.1647 32.698 23.1327 32.3768 23.168 32.0595ZM39.1838 45.4037H28.2405C27.6389 45.4037 27.062 45.1647 26.6366 44.7393C26.2112 44.3139 25.9723 43.737 25.9723 43.1354C25.9723 42.5339 26.2112 41.9569 26.6366 41.5316C27.062 41.1062 27.6389 40.8672 28.2405 40.8672H39.1838C39.7858 40.8672 40.3631 41.1063 40.7887 41.532C41.2143 41.9576 41.4535 42.5349 41.4535 43.1368C41.4535 43.7388 41.2143 44.3161 40.7887 44.7417C40.3631 45.1673 39.7858 45.4037 39.1838 45.4037ZM44.1753 32.0623C44.1753 32.6642 43.9362 33.2415 43.5106 33.6672C43.0849 34.0928 42.5077 34.3319 41.9057 34.3319C41.3038 34.3319 40.7265 34.0928 40.3008 33.6672C39.8752 33.2415 39.6361 32.6642 39.6361 32.0623V24.8514C39.6361 24.2495 39.8752 23.6722 40.3008 23.2465C40.7265 22.8209 41.3038 22.5818 41.9057 22.5818C42.5077 22.5818 43.0849 22.8209 43.5106 23.2465C43.9362 23.6722 44.1753 24.2495 44.1753 24.8514V32.0623ZM59.0968 40.3368C59.0968 40.5322 59.0186 40.7276 58.8846 40.87C58.8138 40.9393 58.73 40.994 58.638 41.0308C58.5461 41.0677 58.4477 41.0861 58.3486 41.085H56.2409C56.2531 40.969 56.2531 40.852 56.2409 40.736V26.1635C56.2531 26.0475 56.2531 25.9305 56.2409 25.8145H58.3765C58.4714 25.814 58.5654 25.8327 58.6527 25.8697C58.7401 25.9066 58.819 25.961 58.8846 26.0295C59.0186 26.1747 59.094 26.3645 59.0968 26.5599V40.3368Z" fill="#222736"/>
</svg>
